<svg xmlns="http://www.w3.org/2000/svg" viewBox="0 0 640 360" fill="none">
  <defs>
    <pattern id="g3" width="40" height="40" patternUnits="userSpaceOnUse">
      <path d="M40 0H0V40" fill="none" stroke="#16213a" stroke-width="1"/>
    </pattern>
  </defs>
  <rect width="640" height="360" fill="#0b1120"/>
  <rect width="640" height="360" fill="url(#g3)"/>
  <rect width="640" height="4" fill="#fbbf24"/>

  <g>
    <rect x="74"  y="100" width="40" height="40" rx="5" fill="#fbbf24" fill-opacity="0.25"/>
    <rect x="120" y="100" width="40" height="40" rx="5" fill="#fbbf24" fill-opacity="0.85"/>
    <rect x="166" y="100" width="40" height="40" rx="5" fill="#fbbf24" fill-opacity="0.45"/>
    <rect x="212" y="100" width="40" height="40" rx="5" fill="#fbbf24" fill-opacity="0.15"/>
    <rect x="74"  y="146" width="40" height="40" rx="5" fill="#fbbf24" fill-opacity="0.6"/>
    <rect x="120" y="146" width="40" height="40" rx="5" fill="#fbbf24" fill-opacity="0.95"/>
    <rect x="166" y="146" width="40" height="40" rx="5" fill="#fbbf24" fill-opacity="0.35"/>
    <rect x="212" y="146" width="40" height="40" rx="5" fill="#fbbf24" fill-opacity="0.2"/>
    <rect x="74"  y="192" width="40" height="40" rx="5" fill="#fbbf24" fill-opacity="0.15"/>
    <rect x="120" y="192" width="40" height="40" rx="5" fill="#fbbf24" fill-opacity="0.5"/>
    <rect x="166" y="192" width="40" height="40" rx="5" fill="#fbbf24" fill-opacity="0.7"/>
    <rect x="212" y="192" width="40" height="40" rx="5" fill="#fbbf24" fill-opacity="0.25"/>
  </g>

  <path d="M300 220 H 568" stroke="#1e293b" stroke-width="2"/>
  <polyline points="300,196 340,200 380,170 420,176 460,138 500,150 540,116 566,128"
    stroke="#fbbf24" stroke-width="2.5" fill="none" stroke-linejoin="round" stroke-linecap="round"/>
  <circle cx="460" cy="138" r="3.5" fill="#fde68a"/>
  <circle cx="540" cy="116" r="3.5" fill="#fde68a"/>

  <rect x="470" y="250" width="96" height="40" rx="8" fill="#0f1b30" stroke="#fbbf24"/>
  <rect x="486" y="240" width="64" height="16" rx="4" fill="#fbbf24"/>
  <text x="518" y="252" text-anchor="middle" fill="#0b1120" font-family="monospace" font-size="11" font-weight="bold">TAXI</text>
  <circle cx="492" cy="290" r="9" fill="#0b1120" stroke="#fbbf24" stroke-width="2"/>
  <circle cx="544" cy="290" r="9" fill="#0b1120" stroke="#fbbf24" stroke-width="2"/>

  <text x="74" y="318" fill="#64748b" font-family="monospace" font-size="17">next-hour demand · NYC pickup zones</text>
</svg>
